# xmcd
#
# Track frame offsets:
#	150
#	17750
#	38792
#	60760
#	78500
#	96732
#	115847
#	133520
#	154192
#	177092
#	196715
#	211955
#	231987
#	256595
#	286085
#
# Disc length: 4007 seconds
#
# Revision: 1
# Processed by: cddbd v1.5.1PL0 Copyright (c) Steve Scherf et al.
# Submitted via: CDex 1.50Beta5
#
DISCID=bf0fa50f
DTITLE=Various Artist - NEW MUSIC BEST COLLECTION 16
DYEAR=1900
DGENRE=Folk
TTITLE0=井上陽水/リバーサイドホテル
TTITLE1=井上陽水/飾りじゃないのよ 涙は
TTITLE2=杏里/SURF and TEARS
TTITLE3=今井美樹/彼女とTIP ON DUO
TTITLE4=今井美樹/Boogie-Woogie Lonesome High-Heel
TTITLE5=吉田拓郎/明日に向かって走れ
TTITLE6=吉田拓郎/となりの町のお嬢さん
TTITLE7=原田真二/見つめてCARRY ON
TTITLE8=今井美樹/静かにきたソリチュード
TTITLE9=わらべ/もしも明日が
TTITLE10=Sugar/ウエディング・ベル
TTITLE11=杏里/悲しみがとまらない
TTITLE12=杏里/オリビアを聴きながら(NEW TAKE)
TTITLE13=吉田拓郎/落陽
TTITLE14=井上陽水/いっそセレナーデ
EXTD=
EXTT0=
EXTT1=
EXTT2=
EXTT3=
EXTT4=
EXTT5=
EXTT6=
EXTT7=
EXTT8=
EXTT9=
EXTT10=
EXTT11=
EXTT12=
EXTT13=
EXTT14=
PLAYORDER=
